#N canvas 277 25 1319 911 10;
#X obj 165 279 dac~;
#X obj 198 204 *~;
#X obj 213 148 hsl 128 15 0.0001 1 1 0 empty empty empty -2 -8 0 10
-262144 -1 -1 12550 1;
#X obj 94 342 simglobal;
#X obj 635 442 simaggregate humidity;
#X obj 631 224 simaggregate temperature;
#N canvas 95 94 458 493 tempcontrol 0;
#X obj 51 365 outlet;
#X obj 118 367 outlet;
#X obj 209 369 outlet;
#X obj 322 373 outlet;
#X obj 157 226 loadbang;
#X msg 157 252 min -10 \, max 30 \, auto 1;
#X connect 4 0 5 0;
#X connect 5 0 0 0;
#X connect 5 0 1 0;
#X connect 5 0 3 0;
#X connect 5 0 2 0;
#X coords 0 0 1 1 120 45 0;
#X restore 355 23 pd tempcontrol;
#N canvas 60 88 458 516 humcontrol 0;
#X obj 47 144 outlet;
#X obj 114 146 outlet;
#X obj 205 148 outlet;
#X obj 318 152 outlet;
#X obj 47 36 loadbang;
#X msg 47 60 min 10 \, max 100 \, auto 1;
#X connect 4 0 5 0;
#X connect 5 0 0 0;
#X connect 5 0 1 0;
#X connect 5 0 3 0;
#X connect 5 0 2 0;
#X coords 0 0 1 1 120 45 0;
#X restore 359 263 pd humcontrol;
#X obj 213 170 u/lag 100;
#X obj 129 217 *~;
#X obj 162 218 *~;
#X text 50 38 2nd arg (device name) should match simsensors;
#X obj 1041 326 simsensor humidity dev4;
#X obj 811 327 simsensor humidity dev3;
#X obj 586 327 simsensor humidity dev2;
#X obj 359 327 simsensor humidity dev1;
#X obj 95 59 simvoicewrapper bog-voice dev1;
#X obj 116 80 simvoicewrapper bog-voice dev2;
#X obj 136 100 simvoicewrapper bog-voice dev3;
#X obj 159 121 simvoicewrapper bog-voice dev4;
#X obj 5 168 simglobalwrapper bog-global;
#X obj 355 106 simsensor temperature dev1;
#X obj 581 105 simsensor temperature dev2;
#X obj 806 105 simsensor temperature dev3;
#X obj 1036 105 simsensor temperature dev4;
#X obj 342 554 simsensor illuminance dev1;
#X obj 569 554 simsensor illuminance dev2;
#X obj 794 554 simsensor illuminance dev3;
#X obj 1024 553 simsensor illuminance dev4;
#X obj 618 669 simaggregate illuminance;
#N canvas 60 88 458 516 illcontrol 0;
#X obj 47 144 outlet;
#X obj 114 146 outlet;
#X obj 205 148 outlet;
#X obj 318 152 outlet;
#X obj 47 36 loadbang;
#X msg 47 60 min 0.001 \, max 60000 \, log \, auto 1;
#X connect 4 0 5 0;
#X connect 5 0 0 0;
#X connect 5 0 1 0;
#X connect 5 0 3 0;
#X connect 5 0 2 0;
#X coords 0 0 1 1 120 45 0;
#X restore 342 490 pd illcontrol;
#X connect 1 0 0 0;
#X connect 1 0 0 1;
#X connect 2 0 8 0;
#X connect 6 0 21 0;
#X connect 6 1 22 0;
#X connect 6 2 23 0;
#X connect 6 3 24 0;
#X connect 7 0 15 0;
#X connect 7 1 14 0;
#X connect 7 2 13 0;
#X connect 7 3 12 0;
#X connect 8 0 1 1;
#X connect 8 0 10 1;
#X connect 8 0 9 1;
#X connect 9 0 0 0;
#X connect 10 0 0 1;
#X connect 12 0 4 3;
#X connect 13 0 4 2;
#X connect 14 0 4 1;
#X connect 15 0 4 0;
#X connect 16 0 1 0;
#X connect 20 0 9 0;
#X connect 20 1 10 0;
#X connect 21 0 5 0;
#X connect 22 0 5 1;
#X connect 23 0 5 2;
#X connect 24 0 5 3;
#X connect 25 0 29 0;
#X connect 26 0 29 1;
#X connect 27 0 29 2;
#X connect 28 0 29 3;
#X connect 30 0 25 0;
#X connect 30 1 26 0;
#X connect 30 2 27 0;
#X connect 30 3 28 0;
