#N canvas 546 178 650 491 10;
#X obj 107 73 -;
#X obj 109 179 /;
#X obj 108 118 pow 2;
#X obj 109 260 pow;
#X obj 109 223 t b f;
#X obj 18 202 loadbang;
#X msg 18 224 2.71828;
#X obj 59 37 inlet;
#X obj 120 36 inlet;
#X obj 204 38 inlet;
#X obj 108 309 outlet;
#X obj 158 137 pow 2;
#X obj 109 201 / -2;
#X obj 108 97 abs;
#X obj 184 86 abs;
#X obj 254 193 expr pow(2.71828 \, -pow(abs($f1-$f2) \, 2)/pow(abs($f3)
\, 2)/2);
#X floatatom 262 245 5 0 0 0 - - -, f 5;
#X connect 0 0 13 0;
#X connect 1 0 12 0;
#X connect 2 0 1 0;
#X connect 3 0 10 0;
#X connect 4 0 3 0;
#X connect 4 1 3 1;
#X connect 5 0 6 0;
#X connect 6 0 3 0;
#X connect 7 0 0 0;
#X connect 8 0 0 1;
#X connect 9 0 14 0;
#X connect 11 0 1 1;
#X connect 12 0 4 0;
#X connect 13 0 2 0;
#X connect 14 0 11 0;
#X connect 15 0 16 0;
