#N canvas 135 37 975 843 10;
#X obj 36 28 voicein \$1;
#X obj 381 81 voiceout~ \$1;
#X obj 97 50 s \$0-stop;
#X obj 449 43 r \$0-stop;
#X obj 381 14 catch~ \$0-out;
#X obj 32 378 s \$0-datalist;
#N canvas 0 22 1484 824 log_ill 0;
#X obj 101 116 + 1;
#X obj 101 138 log;
#X obj 101 160 /;
#X obj 101 182 * 25;
#X obj 158 152 log;
#X obj 158 98 loadbang;
#X msg 158 120 10;
#X obj 105 62 inlet;
#X obj 105 222 outlet;
#X connect 0 0 1 0;
#X connect 1 0 2 0;
#X connect 2 0 3 0;
#X connect 3 0 8 0;
#X connect 4 0 2 1;
#X connect 5 0 6 0;
#X connect 6 0 4 0;
#X connect 7 0 0 0;
#X restore 206 233 pd log_ill;
#X obj 543 234 log;
#X obj 540 254 /;
#X obj 623 189 loadbang;
#X msg 623 211 10;
#X obj 623 233 log;
#X obj 540 196 * 1e+006;
#X obj 540 218 + 1;
#X obj 543 279 - 3;
#X obj 38 174 cs/csstream;
#X obj 207 175 cs/csstream;
#X obj 344 185 cs/csstream;
#X obj 732 180 cs/csstream;
#X obj 540 149 cs/csstream;
#X obj 30 337 u/pak6f, f 142;
#X obj 89 449 bog-dude \$0 bog-bass_melody_major;
#X obj 89 474 bog-dude \$0 bog-bass_melody_minor;
#X obj 89 494 bog-dude \$0 bog-bass_minor;
#X obj 89 521 bog-dude \$0 bog-bass_root;
#X obj 89 541 bog-dude \$0 bog-cello_arco_major;
#X obj 89 566 bog-dude \$0 bog-cello_arco_minor;
#X obj 89 586 bog-dude \$0 bog-cello_pizz_major_fast;
#X obj 90 611 bog-dude \$0 bog-cello_pizz_major_slow;
#X obj 90 631 bog-dude \$0 bog-cello_pizz_minor;
#X obj 90 656 bog-dude \$0 bog-drums_fast1;
#X obj 90 676 bog-dude \$0 bog-drums_fast2;
#X obj 90 703 bog-dude \$0 bog-drums_relaxed1;
#X obj 90 723 bog-dude \$0 bog-drums_relaxed2;
#X obj 90 748 bog-dude \$0 bog-guitar_fast1;
#X obj 90 768 bog-dude \$0 bog-guitar_fast2;
#X obj 90 794 bog-dude \$0 bog-guitar_high;
#X obj 90 814 bog-dude \$0 bog-guitar_slow;
#X obj 89 429 bog-dude \$0 bog-bass_major;
#X msg 37 123 device::\$1::temperature;
#X msg 206 123 device::\$1::illuminance;
#X msg 345 133 device::\$1::temperature::dev;
#X msg 541 129 device::\$1::illuminance::unit;
#X msg 734 128 device::\$1::humidity::dev;
#X obj 58 74 list;
#X obj 384 49 *~ 4;
#X connect 0 0 44 0;
#X connect 0 1 2 0;
#X connect 3 0 1 1;
#X connect 4 0 45 0;
#X connect 6 0 20 1;
#X connect 7 0 8 0;
#X connect 8 0 14 0;
#X connect 9 0 10 0;
#X connect 10 0 11 0;
#X connect 11 0 8 1;
#X connect 12 0 13 0;
#X connect 13 0 7 0;
#X connect 14 0 20 3;
#X connect 15 0 20 0;
#X connect 16 0 6 0;
#X connect 17 0 20 2;
#X connect 18 0 20 4;
#X connect 19 0 12 0;
#X connect 20 0 5 0;
#X connect 39 0 15 0;
#X connect 40 0 16 0;
#X connect 41 0 17 0;
#X connect 42 0 19 0;
#X connect 43 0 18 0;
#X connect 44 0 39 0;
#X connect 44 0 43 0;
#X connect 44 0 42 0;
#X connect 44 0 41 0;
#X connect 44 0 40 0;
#X connect 45 0 1 0;
