#N canvas 261 48 703 710 10;
#X obj 365 671 dac~;
#X obj 372 621 *~;
#X obj 420 556 hsl 128 15 0.00025 0.25 1 0 empty empty empty -2 -8
0 10 -262144 -1 -1 0 1;
#X obj 36 508 osc~;
#X obj 36 483 mtof;
#X obj 63 89 select 0 1 2 3 4 5 6;
#X text 142 130 6;
#X text 86 130 1;
#X text 185 130 4;
#X text 218 130 2;
#X text 269 130 7;
#X text 332 130 5;
#X text 374 130 3;
#X text 343 75 these offset \, inversion pairs represent all 7 diatonic
chords., f 25;
#X obj 63 214 unpack f s;
#X obj 36 337 u/scalechord 7root;
#X obj 167 338 u/scalechord 7root;
#X obj 295 335 u/scalechord 7root;
#X obj 36 337 u/scalechord 7root;
#X obj 167 338 u/scalechord 7root;
#X obj 295 335 u/scalechord 7root;
#X obj 424 335 u/scalechord 7root;
#X obj 424 335 u/scalechord 7root;
#X msg 36 315 0;
#X msg 167 315 1;
#X msg 295 314 2;
#X msg 424 314 3;
#X obj 36 436 u/scale major;
#X obj 167 435 u/scale major;
#X obj 295 435 u/scale major;
#X obj 423 435 u/scale major;
#X msg 554 411 major;
#X msg 613 411 minor;
#X msg 63 146 0 7root;
#X msg 129 146 0 7I;
#X msg 171 146 0 7II;
#X msg 217 146 0 7III;
#X msg 276 146 1 7I;
#X msg 319 146 1 7II;
#X msg 372 146 1 7III;
#X obj 36 257 t b b b b;
#X obj 36 364 +;
#X obj 167 364 +;
#X obj 295 364 +;
#X obj 424 364 +;
#X obj 167 508 osc~;
#X obj 167 483 mtof;
#X obj 295 508 osc~;
#X obj 295 483 mtof;
#X obj 423 508 osc~;
#X obj 423 483 mtof;
#X obj 36 19 bng 15 250 50 0 empty empty empty 17 7 0 10 -262144 -1
-1;
#X obj 36 460 + 60;
#X obj 167 458 + 60;
#X obj 295 458 + 60;
#X obj 423 458 + 60;
#X obj 36 66 t b f;
#X obj 36 42 u/randomx 7;
#X obj 568 328 hsl 128 15 0 12 0 0 empty empty empty -2 -8 0 10 -262144
-1 -1 1300 1;
#X obj 568 349 int;
#X floatatom 568 372 5 0 0 0 - - -, f 5;
#X obj 36 400 +;
#X obj 167 400 +;
#X obj 295 400 +;
#X obj 424 400 +;
#X obj 420 580 u/lag 100;
#X connect 1 0 0 0;
#X connect 1 0 0 1;
#X connect 2 0 65 0;
#X connect 3 0 1 0;
#X connect 4 0 3 0;
#X connect 5 0 33 0;
#X connect 5 1 34 0;
#X connect 5 2 35 0;
#X connect 5 3 36 0;
#X connect 5 4 37 0;
#X connect 5 5 38 0;
#X connect 5 6 39 0;
#X connect 14 0 41 1;
#X connect 14 0 42 1;
#X connect 14 0 43 1;
#X connect 14 0 44 1;
#X connect 14 1 18 1;
#X connect 14 1 22 1;
#X connect 14 1 21 1;
#X connect 14 1 20 1;
#X connect 14 1 19 1;
#X connect 14 1 17 1;
#X connect 14 1 16 1;
#X connect 14 1 15 1;
#X connect 18 0 41 0;
#X connect 19 0 42 0;
#X connect 20 0 43 0;
#X connect 22 0 44 0;
#X connect 23 0 18 0;
#X connect 24 0 19 0;
#X connect 25 0 20 0;
#X connect 26 0 22 0;
#X connect 27 0 52 0;
#X connect 28 0 53 0;
#X connect 29 0 54 0;
#X connect 30 0 55 0;
#X connect 31 0 30 1;
#X connect 31 0 29 1;
#X connect 31 0 28 1;
#X connect 31 0 27 1;
#X connect 32 0 30 1;
#X connect 32 0 29 1;
#X connect 32 0 28 1;
#X connect 32 0 27 1;
#X connect 33 0 14 0;
#X connect 34 0 14 0;
#X connect 35 0 14 0;
#X connect 36 0 14 0;
#X connect 37 0 14 0;
#X connect 38 0 14 0;
#X connect 39 0 14 0;
#X connect 40 0 23 0;
#X connect 40 1 24 0;
#X connect 40 2 25 0;
#X connect 40 3 26 0;
#X connect 41 0 61 0;
#X connect 42 0 62 0;
#X connect 43 0 63 0;
#X connect 44 0 64 0;
#X connect 45 0 1 0;
#X connect 46 0 45 0;
#X connect 47 0 1 0;
#X connect 48 0 47 0;
#X connect 49 0 1 0;
#X connect 50 0 49 0;
#X connect 51 0 57 0;
#X connect 52 0 4 0;
#X connect 53 0 46 0;
#X connect 54 0 48 0;
#X connect 55 0 50 0;
#X connect 56 0 40 0;
#X connect 56 1 5 0;
#X connect 57 0 56 0;
#X connect 58 0 59 0;
#X connect 59 0 60 0;
#X connect 60 0 64 1;
#X connect 60 0 63 1;
#X connect 60 0 62 1;
#X connect 60 0 61 1;
#X connect 61 0 27 0;
#X connect 62 0 28 0;
#X connect 63 0 29 0;
#X connect 64 0 30 0;
#X connect 65 0 1 1;
