#N canvas 758 18 1039 907 10;
#X obj 477 824 dac~;
#X obj 484 774 *~;
#X obj 532 709 hsl 128 15 0.00025 0.25 1 0 empty empty empty -2 -8
0 10 -262144 -1 -1 0 1;
#X obj 148 661 osc~;
#X obj 148 636 mtof;
#X text 169 227 6;
#X text 231 227 1;
#X obj 175 397 unpack f s;
#X obj 148 520 u/scalechord 7root;
#X obj 279 521 u/scalechord 7root;
#X obj 407 518 u/scalechord 7root;
#X obj 148 520 u/scalechord 7root;
#X obj 279 521 u/scalechord 7root;
#X obj 407 518 u/scalechord 7root;
#X obj 536 518 u/scalechord 7root;
#X obj 536 518 u/scalechord 7root;
#X msg 148 498 0;
#X msg 279 498 1;
#X msg 407 497 2;
#X msg 536 497 3;
#X obj 148 589 u/scale major;
#X obj 279 588 u/scale major;
#X obj 407 588 u/scale major;
#X obj 536 588 u/scale major;
#X msg 667 564 major;
#X msg 726 564 minor;
#X msg 208 243 0 7root;
#X msg 156 243 0 7I;
#X obj 148 440 t b b b b;
#X obj 148 547 +;
#X obj 279 547 +;
#X obj 407 547 +;
#X obj 536 547 +;
#X obj 279 661 osc~;
#X obj 279 636 mtof;
#X obj 407 661 osc~;
#X obj 407 636 mtof;
#X obj 536 661 osc~;
#X obj 536 636 mtof;
#X obj 129 31 bng 15 250 50 0 empty empty empty 17 7 0 10 -262144 -1
-1;
#X obj 148 613 + 60;
#X obj 279 611 + 60;
#X obj 407 611 + 60;
#X obj 536 611 + 60;
#X obj 129 148 t b f;
#X obj 532 733 u/lag 100;
#X obj 129 103 +;
#X obj 190 85 hsl 128 15 0 10 0 0 empty empty empty -2 -8 0 10 -262144
-1 -1 3000 1;
#X obj 190 105 int;
#X floatatom 190 127 5 0 0 0 - - -, f 5;
#X text 346 243 1;
#X text 694 227 1;
#X msg 678 243 4 7II;
#X msg 521 243 2 7root;
#X text 343 227 4;
#X text 538 227 3;
#X msg 312 243 1 7III;
#X text 275 227 5;
#X msg 260 243 1 7II;
#X text 581 227 5;
#X msg 573 243 3 7III;
#X text 750 227 5;
#X msg 730 243 4 7root;
#X text 483 227 6;
#X msg 469 243 2 7II;
#X text 903 227 6;
#X msg 886 243 5 7root;
#X obj 104 347 bng 15 250 50 0 empty empty empty 17 7 0 10 -262144
-1 -1;
#X text 639 227 2;
#X msg 625 243 3 7I;
#X text 431 227 2;
#X msg 417 243 1 7root;
#X text 848 227 2;
#X msg 834 243 5 7II;
#X msg 364 243 1 7I;
#X text 377 227 7;
#X text 795 227 7;
#X msg 782 243 5 7III;
#X obj 156 171 select 0 1 2 3 4 5 6 7 8 9 10 11 12 13 14, f 131;
#X floatatom 573 564 5 0 0 0 - - -, f 5;
#X floatatom 437 569 5 0 0 0 - - -, f 5;
#X floatatom 296 568 5 0 0 0 - - -, f 5;
#X floatatom 172 570 5 0 0 0 - - -, f 5;
#X floatatom 187 613 5 0 0 0 - - -, f 5;
#X floatatom 313 612 5 0 0 0 - - -, f 5;
#X floatatom 439 611 5 0 0 0 - - -, f 5;
#X floatatom 573 610 5 0 0 0 - - -, f 5;
#X obj 91 696 osc~;
#X obj 91 672 / 2;
#X text 40 678 double the root, f 6;
#X obj 129 54 u/xrandom 5;
#X connect 1 0 0 0;
#X connect 1 0 0 1;
#X connect 2 0 45 0;
#X connect 3 0 1 0;
#X connect 4 0 3 0;
#X connect 4 0 88 0;
#X connect 7 0 29 1;
#X connect 7 0 30 1;
#X connect 7 0 31 1;
#X connect 7 0 32 1;
#X connect 7 1 11 1;
#X connect 7 1 15 1;
#X connect 7 1 14 1;
#X connect 7 1 13 1;
#X connect 7 1 12 1;
#X connect 7 1 10 1;
#X connect 7 1 9 1;
#X connect 7 1 8 1;
#X connect 11 0 29 0;
#X connect 12 0 30 0;
#X connect 13 0 31 0;
#X connect 15 0 32 0;
#X connect 16 0 11 0;
#X connect 17 0 12 0;
#X connect 18 0 13 0;
#X connect 19 0 15 0;
#X connect 20 0 40 0;
#X connect 20 0 83 0;
#X connect 21 0 41 0;
#X connect 21 0 84 0;
#X connect 22 0 42 0;
#X connect 22 0 85 0;
#X connect 23 0 43 0;
#X connect 23 0 86 0;
#X connect 24 0 23 1;
#X connect 24 0 22 1;
#X connect 24 0 21 1;
#X connect 24 0 20 1;
#X connect 25 0 23 1;
#X connect 25 0 22 1;
#X connect 25 0 21 1;
#X connect 25 0 20 1;
#X connect 26 0 7 0;
#X connect 27 0 7 0;
#X connect 28 0 16 0;
#X connect 28 1 17 0;
#X connect 28 2 18 0;
#X connect 28 3 19 0;
#X connect 29 0 20 0;
#X connect 29 0 82 0;
#X connect 30 0 21 0;
#X connect 30 0 81 0;
#X connect 31 0 22 0;
#X connect 31 0 80 0;
#X connect 32 0 23 0;
#X connect 32 0 79 0;
#X connect 33 0 1 0;
#X connect 34 0 33 0;
#X connect 35 0 1 0;
#X connect 36 0 35 0;
#X connect 37 0 1 0;
#X connect 38 0 37 0;
#X connect 39 0 90 0;
#X connect 40 0 4 0;
#X connect 41 0 34 0;
#X connect 42 0 36 0;
#X connect 43 0 38 0;
#X connect 44 0 28 0;
#X connect 44 1 78 0;
#X connect 45 0 1 1;
#X connect 46 0 44 0;
#X connect 47 0 48 0;
#X connect 48 0 49 0;
#X connect 49 0 46 1;
#X connect 52 0 7 0;
#X connect 53 0 7 0;
#X connect 56 0 7 0;
#X connect 58 0 7 0;
#X connect 60 0 7 0;
#X connect 62 0 7 0;
#X connect 64 0 7 0;
#X connect 66 0 7 0;
#X connect 67 0 28 0;
#X connect 69 0 7 0;
#X connect 71 0 7 0;
#X connect 73 0 7 0;
#X connect 74 0 7 0;
#X connect 77 0 7 0;
#X connect 78 0 27 0;
#X connect 78 1 26 0;
#X connect 78 2 58 0;
#X connect 78 3 56 0;
#X connect 78 4 74 0;
#X connect 78 5 71 0;
#X connect 78 6 64 0;
#X connect 78 7 53 0;
#X connect 78 8 60 0;
#X connect 78 9 69 0;
#X connect 78 10 52 0;
#X connect 78 11 62 0;
#X connect 78 12 77 0;
#X connect 78 13 73 0;
#X connect 78 14 66 0;
#X connect 87 0 1 0;
#X connect 88 0 87 0;
#X connect 90 0 46 0;
