#N canvas 918 86 613 657 10;
#X obj 314 217 inlet~;
#X obj 371 218 inlet~;
#X obj 314 286 dac~ 1 2;
#X obj 166 11 r rcv_manager;
#X obj 166 83 route \$1;
#X obj 166 32 route 0;
#X obj 166 56 route settrack;
#X obj 330 247 *~, f 4;
#X obj 297 245 *~;
#X obj 159 156 line~ 0;
#X msg 165 115 1 100;
#X msg 227 122 0 100;
#X connect 0 0 8 1;
#X connect 1 0 7 1;
#X connect 3 0 5 0;
#X connect 4 0 10 0;
#X connect 4 1 11 0;
#X connect 5 0 6 0;
#X connect 6 0 4 0;
#X connect 7 0 2 1;
#X connect 8 0 2 0;
#X connect 9 0 8 0;
#X connect 9 0 7 0;
#X connect 10 0 9 0;
#X connect 11 0 9 0;
