#N canvas 401 138 655 390 10;
#X obj 124 62 inlet;
#X obj 221 62 inlet;
#X obj 318 62 inlet;
#X obj 415 62 inlet;
#X floatatom 158 229 7 0 0 0 mean - -, f 7;
#X floatatom 300 229 7 0 0 0 min - -, f 7;
#X floatatom 371 229 7 0 0 0 max - -, f 7;
#X obj 135 160 u/mean4;
#X obj 295 160 u/min4;
#X obj 375 160 u/max4;
#X obj 5 323 simstream metric::\$1::mean;
#X obj 333 323 simstream metric::\$1::min;
#X obj 494 323 simstream metric::\$1::max;
#X floatatom 229 229 7 0 0 0 std - -, f 7;
#X obj 215 160 u/std4;
#X obj 172 323 simstream metric::\$1::std;
#X connect 0 0 8 0;
#X connect 0 0 9 0;
#X connect 0 0 7 0;
#X connect 0 0 14 0;
#X connect 1 0 8 1;
#X connect 1 0 9 1;
#X connect 1 0 7 1;
#X connect 1 0 14 1;
#X connect 2 0 8 2;
#X connect 2 0 9 2;
#X connect 2 0 7 2;
#X connect 2 0 14 2;
#X connect 3 0 8 3;
#X connect 3 0 9 3;
#X connect 3 0 7 3;
#X connect 3 0 14 3;
#X connect 4 0 10 0;
#X connect 5 0 11 0;
#X connect 6 0 12 0;
#X connect 7 0 4 0;
#X connect 8 0 5 0;
#X connect 9 0 6 0;
#X connect 13 0 15 0;
#X connect 14 0 13 0;
#X coords 0 -1 1 1 292 44 1 127 206;
