#N canvas 17 242 494 404 10;
#X obj 395 258 loadbang;
#X obj 395 283 s csloadbang;
#X obj 25 325 s rcv_cstime;
#X obj 21 44 hsl 128 15 0 86399 0 0 \$0-currtime empty Current_Time
-2 -8 0 10 -262144 -1 -1 0 1;
#X floatatom 21 63 5 0 0 0 - #0-currtime-hr -, f 5;
#X floatatom 65 63 5 0 0 0 - #0-currtime-min -, f 5;
#X obj 25 228 r \$0-currtime;
#X obj 41 302 s \$0-currtime-hr;
#X obj 175 256 mod 3600;
#X obj 41 264 div 3600;
#X obj 175 277 div 60;
#X obj 175 301 s \$0-currtime-min;
#X obj 21 90 bng 30 250 50 0 empty empty Reset\ Streams 34 14 0 10
-262144 -1 -1;
#X obj 21 171 s reset-simvoice;
#X text 163 147 resubscribe simsensors to aggregates;
#X text 123 171 re-init voices;
#X obj 48 148 s reset-simsensor;
#X obj 21 125 t b b;
#X connect 0 0 1 0;
#X connect 6 0 2 0;
#X connect 6 0 9 0;
#X connect 6 0 8 0;
#X connect 8 0 10 0;
#X connect 9 0 7 0;
#X connect 10 0 11 0;
#X connect 12 0 17 0;
#X connect 17 0 13 0;
#X connect 17 1 16 0;
#X coords 0 -1 1 1 154 120 1 10 10;
