#N canvas 76 187 455 384 10;
#X text 23 349 Takes an argument for what stream it should be looking
for;
#X text 24 334 Simulates the C# side of a sensor data stream;
#X obj 147 58 r snd_csstream;
#X obj 111 299 s rcv_csstream;
#X obj 76 133 inlet;
#X obj 147 86 unpack f s;
#X obj 255 151 f 0;
#X obj 159 189 spigot 0;
#X obj 204 110 select \$1;
#X obj 204 131 f 1;
#X text 286 126 look for our argument symbol;
#X obj 159 256 pack f f;
#X obj 255 131 b;
#X text 23 111 simulated sensor reading, f 12;
#X obj 58 240 pack s f;
#X obj 76 162 t b f;
#X obj 43 213 symbol \$1;
#X text 217 247 send the sensor value with each new subscription,
f 29;
#X connect 2 0 5 0;
#X connect 4 0 15 0;
#X connect 5 0 7 0;
#X connect 5 1 8 0;
#X connect 6 0 7 1;
#X connect 7 0 11 0;
#X connect 8 0 9 0;
#X connect 8 1 12 0;
#X connect 9 0 7 1;
#X connect 11 0 3 0;
#X connect 12 0 6 0;
#X connect 14 0 3 0;
#X connect 15 0 16 0;
#X connect 15 1 14 1;
#X connect 15 1 11 1;
#X connect 16 0 14 0;
