#N canvas 908 352 582 487 10;
#X obj 16 58 hsl 100 16 -10 40 0 0 empty \$0-valslider Sensor_Value
-2 -8 0 10 -262144 -1 -1 0 1;
#X floatatom 121 58 7 0 0 0 - - -, f 7;
#X obj 50 181 outlet;
#X obj 168 58 bng 16 250 50 0 empty \$0-trig Trig 19 5 0 10 -262144
-1 -1;
#X obj 250 24 inlet;
#X obj 268 233 t b f;
#X msg 250 290 range \$1 \$2;
#X obj 463 93 s \$0-trig;
#X text 426 53 look for bang;
#X obj 168 87 tgl 16 0 empty \$0-autotog Auto 17 5 0 10 -262144 -1
-1 0 1;
#X text 17 412 takes "min" and "max" messages to set the slider min/max
;
#X obj 16 87 hsl 100 16 0 4 0 0 empty \$0-noiseslider Noise -2 -8 0
10 -262144 -1 -1 0 1;
#X floatatom 121 87 7 0 0 0 - - -, f 7;
#X obj 250 311 s \$0-valslider;
#N canvas 333 87 1089 450 streams 0;
#X obj 547 69 loadbang;
#X text 383 22 assume that somewhere else we're aggregating;
#X text 384 47 properties using a simstream;
#X obj 612 210 r \$0-val;
#X obj 276 184 r \$0-val;
#X obj 340 178 cs/csstream;
#X obj 456 178 cs/csstream;
#X obj 727 178 cs/csstream;
#X obj 856 178 cs/csstream;
#X obj 678 385 simstream device::\$2::\$1::unit;
#X obj 547 96 symbol \$1;
#X msg 340 155 metric::\$1::mean;
#X msg 456 155 metric::\$1::std;
#X msg 727 155 metric::\$1::min;
#X msg 856 155 metric::\$1::max;
#X text 383 35 the various sensors and feeding these global;
#X obj 621 68 r reset-simsensor;
#X text 731 68 resubscribe to aggregates;
#X obj 276 385 expr ($f1 - $f2) / $f3;
#X obj 276 359 spigot 0;
#X obj 678 334 spigot 0;
#X obj 595 316 spigot 1;
#X obj 678 361 expr ($f1 - $f2) / ($f3 - $f2);
#X obj 276 410 simstream device::\$2::\$1::dev;
#X obj 612 265 f;
#X obj 727 200 t b f f;
#X obj 856 201 t b b f f;
#X obj 736 261 -;
#X obj 640 294 == 0;
#X obj 276 277 f;
#X obj 456 203 t b f f;
#X obj 340 200 t b f;
#X text 19 310 output 0 if std is 0;
#X obj 201 355 spigot 1;
#X obj 246 330 == 0;
#X msg 201 377 0;
#X msg 595 338 0;
#X text 496 346 output 0 if our min and max are equal, f 16;
#X connect 0 0 10 0;
#X connect 3 0 24 0;
#X connect 4 0 29 0;
#X connect 5 0 31 0;
#X connect 6 0 30 0;
#X connect 7 0 25 0;
#X connect 8 0 26 0;
#X connect 10 0 12 0;
#X connect 10 0 13 0;
#X connect 10 0 14 0;
#X connect 10 0 11 0;
#X connect 11 0 5 0;
#X connect 12 0 6 0;
#X connect 13 0 7 0;
#X connect 14 0 8 0;
#X connect 16 0 10 0;
#X connect 18 0 23 0;
#X connect 19 0 18 0;
#X connect 20 0 22 0;
#X connect 21 0 36 0;
#X connect 22 0 9 0;
#X connect 24 0 21 0;
#X connect 24 0 20 0;
#X connect 25 0 24 0;
#X connect 25 1 27 0;
#X connect 25 2 22 1;
#X connect 26 0 24 0;
#X connect 26 1 27 0;
#X connect 26 2 27 1;
#X connect 26 3 22 2;
#X connect 27 0 28 0;
#X connect 27 0 20 1;
#X connect 28 0 21 1;
#X connect 29 0 19 0;
#X connect 29 0 33 0;
#X connect 30 0 29 0;
#X connect 30 1 19 1;
#X connect 30 1 34 0;
#X connect 30 2 18 2;
#X connect 31 0 29 0;
#X connect 31 1 18 1;
#X connect 33 0 35 0;
#X connect 34 0 33 1;
#X connect 35 0 23 0;
#X connect 36 0 9 0;
#X restore 495 378 pd streams;
#N canvas 50 546 579 363 ui-handling 0;
#X obj 166 50 inlet;
#X obj 231 51 inlet;
#X obj 297 47 inlet;
#X obj 342 49 inlet;
#X text 140 29 sensor value;
#X text 231 29 noise;
#X text 293 29 trig;
#X text 340 29 auto;
#X obj 316 205 outlet;
#X obj 277 159 f;
#X obj 296 238 s \$0-val;
#X obj 277 271 simstream device::\$2::\$1;
#X obj 243 89 spigot;
#X obj 42 150 metro 100;
#X obj 164 109 > 0;
#X obj 42 244 s \$0-valslider;
#X obj 42 221 +;
#X obj 42 175 random 10000;
#X obj 42 198 expr ($f1 - 4999.5) / 5000 * $f2;
#X obj 277 182 t f f f;
#X text 359 196 output to outlet first so we update global aggregates
, f 27;
#X text 352 231 this updates the scaled values (unit/std), f 23;
#X text 429 263 output the direct sensor reading, f 17;
#X connect 0 0 12 0;
#X connect 0 0 16 1;
#X connect 0 0 9 1;
#X connect 1 0 14 0;
#X connect 1 0 18 1;
#X connect 2 0 9 0;
#X connect 3 0 12 1;
#X connect 9 0 19 0;
#X connect 12 0 9 0;
#X connect 13 0 17 0;
#X connect 14 0 13 0;
#X connect 16 0 15 0;
#X connect 17 0 18 0;
#X connect 18 0 16 0;
#X connect 19 0 11 0;
#X connect 19 1 10 0;
#X connect 19 2 8 0;
#X restore 50 159 pd ui-handling;
#X text 17 432 If "Auto" is true \, sends sensor values when the slider
is moved. Otherwise values are only "sensed" when the "Trig" button
is pressed;
#X obj 250 259 pack f f;
#X obj 357 290 -;
#X msg 357 336 range 0 \$1;
#X text 429 288 auto-scale the noise slider relative to the range of
the sensor value slider, f 19;
#X obj 357 360 s \$0-noiseslider;
#X obj 333 205 loadbang;
#X obj 333 226 f 100;
#X obj 357 313 / -10;
#X text 17 379 Create a simulated sensor. Arguments are the sensor
type (e.g. "temperature" and the device ID;
#X msg 332 150 log;
#X msg 373 151 lin;
#X obj 332 176 s \$0-valslider;
#X obj 250 46 route min max log lin auto, f 28;
#X obj 377 97 s \$0-autotog;
#X connect 0 0 1 0;
#X connect 1 0 15 0;
#X connect 3 0 15 2;
#X connect 4 0 29 0;
#X connect 5 0 17 0;
#X connect 5 1 17 1;
#X connect 6 0 13 0;
#X connect 9 0 15 3;
#X connect 11 0 12 0;
#X connect 12 0 15 1;
#X connect 15 0 2 0;
#X connect 17 0 6 0;
#X connect 17 0 18 0;
#X connect 18 0 24 0;
#X connect 19 0 21 0;
#X connect 22 0 23 0;
#X connect 23 0 17 1;
#X connect 24 0 19 0;
#X connect 26 0 28 0;
#X connect 27 0 28 0;
#X connect 29 0 17 0;
#X connect 29 1 5 0;
#X connect 29 2 26 0;
#X connect 29 3 27 0;
#X connect 29 4 30 0;
#X connect 29 5 7 0;
#X coords 0 -1 1 1 207 83 1 10 25;
