#N canvas 187 272 1019 361 10;
#X obj 13 60 hsl 128 15 0 1 0 0 empty \$0-slider Sensor\ Value -2 -8
0 10 -262144 -1 -1 0 1;
#X floatatom 13 81 5 0 0 0 - - -, f 5;
#X obj 24 209 outlet;
#X obj 151 60 bng 15 250 50 0 empty empty empty 17 7 0 10 -262144 -1
-1;
#X obj 24 124 f;
#X obj 577 118 loadbang;
#X text 413 71 assume that somewhere else we're aggregating;
#X text 414 96 properties using a simstream;
#X obj 53 152 s \$0-val;
#X obj 598 234 r \$0-val;
#X obj 255 233 r \$0-val;
#X obj 370 227 cs/csstream;
#X obj 486 227 cs/csstream;
#X obj 755 227 cs/csstream;
#X obj 913 227 cs/csstream;
#X obj 43 181 simstream device::\$2::1;
#X obj 255 282 simstream device::\$2::\$1::norm;
#X obj 598 282 simstream device::\$2::\$1::unit;
#X text 12 322 Create a simulated sensor. Arguments are the sensor
type (e.g. "temperature" and the sensor ID;
#X obj 577 145 symbol \$1;
#X msg 370 204 metric::\$1::mean;
#X msg 486 204 metric::\$1::std;
#X msg 755 204 metric::\$1::min;
#X msg 913 204 metric::\$1::max;
#X obj 255 257 expr if($f3 == 0 \, 0 \, ($f1 - $f2) / $f3);
#X text 413 84 the various sensors and feeding these global;
#X obj 598 258 expr if($f3-$f2 == 0 \, 0.5 \, ($f1 - $f2) / ($f3 -
$f2));
#X obj 230 24 inlet;
#X obj 230 141 s \$0-slider;
#X obj 230 99 pack 0 1;
#X obj 230 46 route min max;
#X obj 267 71 t b f;
#X msg 230 120 range \$1 \$2;
#X connect 0 0 1 0;
#X connect 1 0 4 1;
#X connect 3 0 4 0;
#X connect 4 0 2 0;
#X connect 4 0 8 0;
#X connect 4 0 15 0;
#X connect 5 0 19 0;
#X connect 9 0 26 0;
#X connect 10 0 24 0;
#X connect 11 0 24 1;
#X connect 12 0 24 2;
#X connect 13 0 26 1;
#X connect 14 0 26 2;
#X connect 19 0 21 0;
#X connect 19 0 22 0;
#X connect 19 0 23 0;
#X connect 19 0 20 0;
#X connect 20 0 11 0;
#X connect 21 0 12 0;
#X connect 22 0 13 0;
#X connect 23 0 14 0;
#X connect 24 0 16 0;
#X connect 26 0 17 0;
#X connect 27 0 30 0;
#X connect 29 0 32 0;
#X connect 30 0 29 0;
#X connect 30 1 31 0;
#X connect 31 0 29 0;
#X connect 31 1 29 1;
#X connect 32 0 28 0;
#X coords 0 -1 1 1 176 80 1 9 25;
