#N canvas 2036 282 1268 672 10;
#X obj 165 279 dac~;
#X obj 198 204 *~;
#X obj 213 148 hsl 128 15 0.0001 1 1 0 empty empty empty -2 -8 0 10
-262144 -1 -1 9000 1;
#X obj 94 342 simglobal;
#X obj 635 442 simaggregate humidity;
#N canvas 95 94 458 493 tempcontrol 1;
#X obj 51 365 outlet;
#X obj 118 367 outlet;
#X obj 209 369 outlet;
#X obj 322 373 outlet;
#X obj 78 51 tgl 15 0 empty empty Auto 17 7 0 10 -262144 -1 -1 0 1
;
#X obj 78 196 spigot;
#X obj 78 87 t b f, f 19;
#X obj 78 168 delay;
#X obj 16 147 bang;
#X obj 78 220 random 4;
#X obj 78 244 select 0 1 2 3;
#X obj 262 213 loadbang;
#X obj 78 115 random 2000;
#X msg 262 237 lin \, min -10 \, max 30;
#X obj 78 142 + 2000;
#X connect 4 0 6 0;
#X connect 5 0 9 0;
#X connect 5 0 8 0;
#X connect 6 0 12 0;
#X connect 6 1 5 1;
#X connect 7 0 5 0;
#X connect 8 0 12 0;
#X connect 9 0 10 0;
#X connect 10 0 0 0;
#X connect 10 1 1 0;
#X connect 10 2 2 0;
#X connect 10 3 3 0;
#X connect 11 0 13 0;
#X connect 12 0 14 0;
#X connect 13 0 0 0;
#X connect 13 0 1 0;
#X connect 13 0 3 0;
#X connect 13 0 2 0;
#X connect 14 0 7 0;
#X coords 0 -1 1 1 120 45 1 72 28;
#X restore 355 23 pd tempcontrol;
#N canvas 60 88 458 516 humcontrol 0;
#X obj 47 144 outlet;
#X obj 114 146 outlet;
#X obj 205 148 outlet;
#X obj 318 152 outlet;
#X obj 47 36 loadbang;
#X msg 47 60 min 10 \, max 100 \, auto;
#X connect 4 0 5 0;
#X connect 5 0 0 0;
#X connect 5 0 1 0;
#X connect 5 0 3 0;
#X connect 5 0 2 0;
#X coords 0 0 1 1 120 45 0;
#X restore 359 263 pd humcontrol;
#X obj 213 170 u/lag 100;
#X obj 5 168 simglobalwrapper ukes-global;
#X obj 357 576 simaggregate wind_speed;
#N canvas 60 88 458 516 windcontrol 0;
#X obj 47 94 outlet;
#X obj 47 36 loadbang;
#X msg 47 60 min 0 \, max 20 \, auto;
#X connect 1 0 2 0;
#X connect 2 0 0 0;
#X coords 0 0 1 1 120 45 0;
#X restore 357 462 pd windcontrol;
#X obj 129 217 *~;
#X obj 162 218 *~;
#X text 50 38 2nd arg (device name) should match simsensors;
#X obj 95 59 simvoicewrapper ukes-voice dev1;
#X obj 116 80 simvoicewrapper ukes-voice dev2;
#X obj 136 100 simvoicewrapper ukes-voice dev3;
#X obj 159 121 simvoicewrapper ukes-voice dev4;
#X obj 355 106 simsensor temperature dev1;
#X obj 631 224 simaggregate temperature;
#X obj 1041 326 simsensor humidity dev4;
#X obj 811 327 simsensor humidity dev3;
#X obj 586 327 simsensor humidity dev2;
#X obj 359 327 simsensor humidity dev1;
#X obj 357 486 simsensor wind_speed dev1;
#X obj 581 105 simsensor temperature dev2;
#X obj 806 105 simsensor temperature dev3;
#X obj 1036 105 simsensor temperature dev4;
#X connect 1 0 0 0;
#X connect 1 0 0 1;
#X connect 2 0 7 0;
#X connect 5 0 18 0;
#X connect 5 1 25 0;
#X connect 5 2 26 0;
#X connect 5 3 27 0;
#X connect 6 0 23 0;
#X connect 6 1 22 0;
#X connect 6 2 21 0;
#X connect 6 3 20 0;
#X connect 7 0 1 1;
#X connect 7 0 12 1;
#X connect 7 0 11 1;
#X connect 8 0 11 0;
#X connect 8 1 12 0;
#X connect 10 0 24 0;
#X connect 11 0 0 0;
#X connect 12 0 0 1;
#X connect 14 0 1 0;
#X connect 15 0 1 0;
#X connect 16 0 1 0;
#X connect 17 0 1 0;
#X connect 18 0 19 0;
#X connect 20 0 4 3;
#X connect 21 0 4 2;
#X connect 22 0 4 1;
#X connect 23 0 4 0;
#X connect 24 0 9 0;
#X connect 25 0 19 1;
#X connect 26 0 19 2;
#X connect 27 0 19 3;
