#N canvas 72 65 927 627 10;
#X obj 177 93 s \$0-stop;
#X obj 396 489 r \$0-stop;
#X obj 327 518 voiceout~ \$1;
#X obj 30 33 voicein \$1;
#N canvas 0 208 256 380 BowlPlayer 0;
#X obj 66 287 u/xfade~;
#X obj 110 91 tgl 15 0 empty empty empty 17 7 0 10 -262144 -1 -1 0
1;
#X obj 110 37 inlet;
#X obj 202 138 == 0;
#X obj 34 162 spigot 0;
#X obj 157 160 spigot 1;
#X obj 66 310 outlet~;
#X obj 34 184 ukes-bowl;
#X obj 157 184 ukes-bowl;
#X obj 110 59 t b f, f 6;
#X obj 111 261 u/lag 2000;
#X connect 0 0 6 0;
#X connect 1 0 3 0;
#X connect 1 0 4 1;
#X connect 1 0 10 0;
#X connect 2 0 9 0;
#X connect 3 0 5 1;
#X connect 4 0 7 0;
#X connect 5 0 8 0;
#X connect 7 0 0 0;
#X connect 8 0 0 1;
#X connect 9 0 1 0;
#X connect 9 1 4 0;
#X connect 9 1 5 0;
#X connect 10 0 0 2;
#X restore 484 427 pd BowlPlayer;
#N canvas 462 216 852 443 mapping 0;
#X obj 352 13 inlet;
#X obj 43 243 * 12;
#X obj 124 169 cs/csstream;
#X obj 43 140 cs/csstream;
#X text 143 192 unit values get updated whenever the global min/max
values are updated \, so we only output when we also see an update
to the raw value, f 38;
#X obj 43 193 u/together 100;
#X obj 462 152 cs/csstream;
#X msg 462 131 device::\$1::humidity::unit;
#X obj 286 323 outlet;
#X obj 462 253 outlet;
#X text 181 323 uke scale degree;
#X text 503 252 vibrato mix;
#X text 404 13 receives device name to subscribe to;
#X text 396 289 avoid sending a pluck on the initial subscription,
f 15;
#X obj 286 295 u/timespigot 1000;
#X msg 43 119 device::\$1::temperature::unit;
#X msg 124 149 device::\$1::temperature;
#X obj 352 57 t a b;
#X obj 352 36 list;
#X connect 0 0 18 0;
#X connect 1 0 14 0;
#X connect 2 0 5 1;
#X connect 3 0 5 0;
#X connect 5 0 1 0;
#X connect 6 0 9 0;
#X connect 7 0 6 0;
#X connect 14 0 8 0;
#X connect 15 0 3 0;
#X connect 16 0 2 0;
#X connect 17 0 15 0;
#X connect 17 0 7 0;
#X connect 17 0 16 0;
#X connect 17 1 14 1;
#X connect 18 0 17 0;
#X restore 30 132 pd mapping;
#X obj 30 217 u/bankplay4 uke 48000;
#X obj 186 220 u/bankplay4 uke-v 48000;
#X obj 472 187 r ukes-chord;
#X obj 164 263 u/xfade~;
#X obj 261 160 r ukes-scaletype;
#X obj 186 198 u/scale major;
#X obj 30 195 u/scale major;
#X obj 261 160 r ukes-scaletype;
#X obj 559 379 r ukes-scaletype;
#X obj 484 401 u/scale major;
#X obj 559 379 r ukes-scaletype;
#X obj 472 210 unpack f s, f 25;
#X text 635 213 input is scale offset and chord inversion;
#X obj 472 234 t f b;
#X obj 484 356 +;
#X text 506 356 transpose diatonically;
#X obj 375 222 u/lag 1000;
#N canvas 132 95 214 183 nightdelay 0;
#X obj 43 172 outlet~;
#X obj 43 23 inlet~;
#X obj 112 105 inlet;
#X obj 43 148 u/comb~ 5000;
#X obj 77 48 loadbang;
#X obj 77 71 f 500;
#X text 117 71 500ms delay;
#X obj 112 126 u/lag 1000;
#X connect 1 0 3 0;
#X connect 2 0 7 0;
#X connect 3 0 0 0;
#X connect 4 0 5 0;
#X connect 5 0 3 1;
#X connect 7 0 3 2;
#X restore 183 329 pd nightdelay;
#X obj 544 320 u/scalechord 7root;
#X obj 258 304 * 0.5;
#X obj 499 260 random 5;
#X text 556 263 pick a random note in the chord \, doubling the root
an octave down, f 35;
#X obj 499 286 select 4;
#X obj 499 320 f -7;
#X obj 258 280 r nighttime;
#X obj 190 65 t a b;
#X obj 164 287 *~ 4;
#X obj 484 451 *~ 2;
#X connect 1 0 2 1;
#X connect 3 0 5 0;
#X connect 3 1 31 0;
#X connect 4 0 33 0;
#X connect 5 0 11 0;
#X connect 5 0 12 0;
#X connect 5 1 22 0;
#X connect 6 0 9 0;
#X connect 7 0 9 1;
#X connect 8 0 17 0;
#X connect 9 0 32 0;
#X connect 10 0 11 1;
#X connect 10 0 12 1;
#X connect 11 0 7 0;
#X connect 12 0 6 0;
#X connect 14 0 15 1;
#X connect 15 0 4 0;
#X connect 17 0 19 0;
#X connect 17 1 24 1;
#X connect 19 0 20 0;
#X connect 19 1 26 0;
#X connect 20 0 15 0;
#X connect 22 0 9 2;
#X connect 23 0 2 0;
#X connect 24 0 20 1;
#X connect 25 0 23 1;
#X connect 26 0 28 0;
#X connect 28 0 29 0;
#X connect 28 1 24 0;
#X connect 29 0 20 1;
#X connect 30 0 25 0;
#X connect 31 0 0 0;
#X connect 32 0 23 0;
#X connect 33 0 2 0;
