#N canvas 23 97 771 655 10;
#X obj 50 438 dac~ \$1;
#X obj 238 381 compositionlist~ \$0;
#X obj 50 409 catch~ \$0-output;
#X text 38 379 Output Signal Management;
#X text 236 349 Composition List pass \$0 so it can connect with send/receives
, f 65;
#X obj 494 62 switch~;
#X text 236 408 inputs to compositions: \$0-start \$0-stop \$0-settrack
;
#X text 236 423 outputs from compositions: \$0-started \$0-stopped
\$0-output (~), f 72;
#X text 379 178 handle states;
#X obj 202 173 list trim;
#X obj 319 124 r \$0-state;
#X obj 202 304 s \$0-state;
#X text 315 284 output next state;
#X obj 126 103 route 0 \$1;
#X obj 126 75 r rcv_manager;
#X text 74 40 start \, stop \, and settrack events come from C#, f
22;
#X obj 211 103 r \$0-stopped;
#X obj 211 124 symbol stopped;
#X obj 202 149 list prepend idle;
#X obj 202 226 route idle running stopping switching;
#N canvas 697 210 575 434 idle 0;
#X obj 24 17 inlet;
#X obj 75 227 outlet;
#X text 172 200 next state;
#X text 154 43 handle events;
#X obj 75 199 symbol running;
#X obj 24 147 symbol;
#X obj 58 253 u/anyval \$0-devname;
#X obj 41 276 s \$0-start;
#X obj 141 122 cs/csprint;
#X obj 24 45 route start settrack;
#X obj 82 153 s \$0-settrack;
#X obj 24 174 t b s s b;
#X obj 24 302 f 1;
#X obj 24 324 s \$0-switch;
#X msg 141 100 WARNING: unhandled event in idle state: \$1;
#X obj 148 76 list;
#X connect 0 0 9 0;
#X connect 4 0 1 0;
#X connect 5 0 11 0;
#X connect 9 0 5 0;
#X connect 9 1 10 0;
#X connect 9 2 15 0;
#X connect 11 0 12 0;
#X connect 11 1 7 0;
#X connect 11 2 6 0;
#X connect 11 3 4 0;
#X connect 12 0 13 0;
#X connect 14 0 8 0;
#X connect 15 0 14 0;
#X restore 202 252 pd idle;
#N canvas 35 243 711 368 running 0;
#X obj 111 31 inlet;
#X obj 168 214 outlet;
#X text 209 213 next state;
#X text 320 60 handle events;
#X obj 24 112 t b b;
#X obj 24 186 s \$0-stop;
#X obj 51 138 symbol stopping;
#X obj 111 58 route stop settrack;
#X obj 241 128 cs/csprint;
#X obj 166 162 s \$0-stop;
#X obj 234 162 symbol switching;
#X obj 166 121 t b b a;
#X obj 351 163 u/anyval \$0-nexttrack;
#X msg 241 106 WARNING: unhandled event in running state: \$1;
#X obj 241 83 list;
#X connect 0 0 7 0;
#X connect 4 0 5 0;
#X connect 4 1 6 0;
#X connect 6 0 1 0;
#X connect 7 0 4 0;
#X connect 7 1 11 0;
#X connect 7 2 14 0;
#X connect 10 0 1 0;
#X connect 11 0 9 0;
#X connect 11 1 10 0;
#X connect 11 2 12 0;
#X connect 13 0 8 0;
#X connect 14 0 13 0;
#X restore 259 252 pd running;
#N canvas 650 268 450 323 stopping 0;
#X obj 49 17 inlet;
#X obj 88 244 outlet;
#X text 163 219 next state;
#X text 258 46 handle events;
#X obj 179 114 cs/csprint;
#X msg 179 92 WARNING: unhandled event \$1;
#X obj 88 216 symbol idle;
#X obj 49 377 s snd_manager;
#X obj 49 325 f \$1;
#X obj 49 352 list append stopped;
#X obj 49 44 route stopped settrack;
#X obj 113 128 t a b;
#X obj 140 154 symbol switching;
#X obj 113 181 u/anyval \$0-nexttrack;
#X obj 68 273 f 0;
#X obj 68 295 s \$0-switch;
#X obj 49 189 t b b b;
#X obj 186 70 list;
#X connect 0 0 10 0;
#X connect 5 0 4 0;
#X connect 6 0 1 0;
#X connect 8 0 9 0;
#X connect 9 0 7 0;
#X connect 10 0 16 0;
#X connect 10 1 11 0;
#X connect 10 2 17 0;
#X connect 11 0 13 0;
#X connect 11 1 12 0;
#X connect 12 0 1 0;
#X connect 14 0 15 0;
#X connect 16 0 8 0;
#X connect 16 1 14 0;
#X connect 16 2 6 0;
#X connect 17 0 5 0;
#X restore 334 252 pd stopping;
#X obj 494 39 r \$0-switch;
#N canvas 746 218 585 410 switching 0;
#X obj 24 17 inlet;
#X text 111 43 handle events;
#X obj 99 120 cs/csprint;
#X obj 24 45 route stopped;
#X obj 24 279 u/anyval \$0-devname;
#X obj 24 306 s \$0-start;
#X obj 63 190 outlet;
#X text 155 161 next state;
#X obj 63 162 symbol running;
#X obj 24 134 t b b b;
#X obj 43 218 u/anyval \$0-nexttrack;
#X obj 43 241 s \$0-settrack;
#X obj 101 74 list;
#X msg 99 98 WARNING: unhandled event in switching state: \$1;
#X connect 0 0 3 0;
#X connect 3 0 9 0;
#X connect 3 1 12 0;
#X connect 4 0 5 0;
#X connect 8 0 6 0;
#X connect 9 0 4 0;
#X connect 9 1 10 0;
#X connect 9 2 8 0;
#X connect 10 0 11 0;
#X connect 12 0 13 0;
#X connect 13 0 2 0;
#X restore 415 252 pd switching;
#X text 237 465 NOTE: \$0-started event not currently used in the state
machine;
#X text 386 122 update state;
#X obj 202 196 t a a;
#X connect 2 0 0 0;
#X connect 9 0 27 0;
#X connect 10 0 18 1;
#X connect 13 0 18 0;
#X connect 13 1 18 0;
#X connect 14 0 13 0;
#X connect 16 0 17 0;
#X connect 17 0 18 0;
#X connect 18 0 9 0;
#X connect 19 0 20 0;
#X connect 19 1 21 0;
#X connect 19 2 22 0;
#X connect 19 3 24 0;
#X connect 20 0 11 0;
#X connect 21 0 11 0;
#X connect 22 0 11 0;
#X connect 23 0 5 0;
#X connect 24 0 11 0;
#X connect 27 0 19 0;
