#N canvas 0 22 840 1001 10;
#X obj 138 36 inlet;
#X obj 90 36 inlet;
#X obj 232 36 inlet;
#X obj 188 35 inlet;
#X obj 280 35 inlet;
#X obj 374 35 inlet;
#X obj 326 35 inlet;
#X obj 73 458 outlet~;
#X obj 90 86 vsl 15 128 0 127 0 0 empty empty empty 0 -9 0 10 -262144
-1 -1 0 1;
#X obj 138 85 vsl 15 128 0 127 0 0 empty empty empty 0 -9 0 10 -262144
-1 -1 0 1;
#X obj 189 83 vsl 15 128 0 127 0 0 empty empty empty 0 -9 0 10 -262144
-1 -1 0 1;
#X obj 234 83 vsl 15 128 0 127 0 0 empty empty empty 0 -9 0 10 -262144
-1 -1 0 1;
#X obj 280 85 vsl 15 128 0 127 0 0 empty empty empty 0 -9 0 10 -262144
-1 -1 0 1;
#X obj 326 85 vsl 15 128 0 127 0 0 empty empty empty 0 -9 0 10 -262144
-1 -1 0 1;
#X obj 374 85 vsl 15 128 0 127 0 0 empty empty empty 0 -9 0 10 -262144
-1 -1 0 1;
#X text 88 221 mix;
#X text 136 221 rate;
#N canvas 0 22 1680 1001 bufferplayer 0;
#X obj 187 892 outlet~;
#X obj 47 25 inlet~;
#X obj 523 30 inlet;
#X obj 229 761 *~;
#X obj 269 764 *~;
#X obj 311 766 *~;
#X obj 353 770 *~;
#X obj 395 771 *~;
#X obj 189 760 *~;
#X obj 433 774 *~;
#X obj 643 115 expr exp(-($f1-127)*($f1-127)/200);
#X obj 619 135 expr exp(-($f1-107)*($f1-107)/200);
#X obj 570 158 expr exp(-($f1-87)*($f1-87)/200);
#X obj 535 182 expr exp(-($f1-67)*($f1-67)/200);
#X obj 502 201 expr exp(-($f1-47)*($f1-47)/200);
#X obj 481 224 expr exp(-($f1-27)*($f1-27)/200);
#X obj 454 248 expr exp(-($f1-0)*($f1-0)/200);
#X obj 762 388 line~;
#X obj 718 388 line~;
#X obj 674 388 line~;
#X obj 637 388 line~;
#X obj 595 388 line~;
#X obj 549 388 line~;
#X obj 507 388 line~;
#X msg 507 361 \$1 20;
#X msg 549 361 \$1 20;
#X msg 595 361 \$1 20;
#X msg 637 361 \$1 20;
#X msg 674 361 \$1 20;
#X msg 762 361 \$1 20;
#X msg 718 361 \$1 20;
#X obj 278 294 tabread4~ zip-rideA7;
#X obj 233 268 tabread4~ zip-rideA6;
#X obj 178 240 tabread4~ zip-rideA5;
#X obj 132 209 tabread4~ zip-rideA4;
#X obj 93 171 tabread4~ zip-rideA3;
#X obj 59 137 tabread4~ zip-rideA2;
#X obj 46 105 tabread4~ zip-rideA1;
#X connect 1 0 31 0;
#X connect 1 0 32 0;
#X connect 1 0 33 0;
#X connect 1 0 34 0;
#X connect 1 0 35 0;
#X connect 1 0 36 0;
#X connect 1 0 37 0;
#X connect 2 0 10 0;
#X connect 2 0 11 0;
#X connect 2 0 12 0;
#X connect 2 0 13 0;
#X connect 2 0 14 0;
#X connect 2 0 15 0;
#X connect 2 0 16 0;
#X connect 3 0 0 0;
#X connect 4 0 0 0;
#X connect 5 0 0 0;
#X connect 6 0 0 0;
#X connect 7 0 0 0;
#X connect 8 0 0 0;
#X connect 9 0 0 0;
#X connect 10 0 29 0;
#X connect 11 0 30 0;
#X connect 12 0 28 0;
#X connect 13 0 27 0;
#X connect 14 0 26 0;
#X connect 15 0 25 0;
#X connect 16 0 24 0;
#X connect 17 0 9 1;
#X connect 18 0 7 1;
#X connect 19 0 6 1;
#X connect 20 0 5 1;
#X connect 21 0 4 1;
#X connect 22 0 3 1;
#X connect 23 0 8 1;
#X connect 24 0 23 0;
#X connect 25 0 22 0;
#X connect 26 0 21 0;
#X connect 27 0 20 0;
#X connect 28 0 19 0;
#X connect 29 0 17 0;
#X connect 30 0 18 0;
#X connect 31 0 9 0;
#X connect 32 0 7 0;
#X connect 33 0 6 0;
#X connect 34 0 5 0;
#X connect 35 0 4 0;
#X connect 36 0 3 0;
#X connect 37 0 8 0;
#X restore 73 307 pd bufferplayer;
#N canvas 1057 149 527 484 rate_managed_phasor~ 0;
#X obj 37 18 inlet;
#X obj 62 377 outlet~;
#X obj 62 338 *~ 352800;
#X obj 62 304 phasor~;
#X obj 62 276 line~;
#X msg 63 260 \$1 20;
#X obj 64 224 * 0.125;
#X obj 65 176 list split 1;
#X obj 37 153 list split;
#X obj 38 96 t b f;
#X obj 65 202 list trim;
#X obj 40 74 int;
#X obj 39 51 u/zmap 0 128 0 8;
#X msg 38 123 0.25 0.333 0.5 0.75 1 1.5 2 3 4;
#X connect 0 0 12 0;
#X connect 2 0 1 0;
#X connect 3 0 2 0;
#X connect 4 0 3 0;
#X connect 5 0 4 0;
#X connect 6 0 5 0;
#X connect 7 0 10 0;
#X connect 8 1 7 0;
#X connect 9 0 13 0;
#X connect 9 1 8 1;
#X connect 10 0 6 0;
#X connect 11 0 9 0;
#X connect 12 0 11 0;
#X connect 13 0 8 0;
#X restore 73 276 pd rate_managed_phasor~;
#X text 182 221 noise;
#X text 230 221 ovd;
#X text 274 220 amp;
#X text 324 220 freq;
#X text 367 220 verb;
#N canvas 0 22 1680 1001 tremolo 0;
#X obj 86 35 inlet~;
#X obj 77 437 outlet~;
#X obj 55 339 *~;
#X obj 224 215 osc~;
#X obj 224 263 +~ 0.5;
#X obj 224 241 *~;
#X obj 207 114 pow 2;
#X obj 326 190 line~;
#X msg 331 167 \$1 20;
#X obj 332 115 sqrt;
#X obj 216 33 inlet;
#X obj 346 38 inlet;
#X obj 206 142 u/zmap 0 16384 0.1 50;
#X obj 348 141 u/zmap 0 11 0 0.5;
#X connect 0 0 2 0;
#X connect 2 0 1 0;
#X connect 3 0 5 0;
#X connect 4 0 2 1;
#X connect 5 0 4 0;
#X connect 6 0 12 0;
#X connect 7 0 5 1;
#X connect 8 0 7 0;
#X connect 9 0 13 0;
#X connect 10 0 6 0;
#X connect 11 0 9 0;
#X connect 12 0 3 0;
#X connect 13 0 8 0;
#X restore 73 402 pd tremolo;
#N canvas 0 22 1068 861 verb 0;
#X obj 57 38 inlet~;
#X obj 66 177 outlet~;
#X obj 253 29 inlet;
#X obj 249 111 line~;
#X msg 251 83 \$1 20;
#X obj 21 136 expr~ $v1*(1-$v3) + $v2*$v3;
#X obj 101 112 zip-vfreeverb~;
#X obj 252 58 u/zmap 0 127 0 1;
#X connect 0 0 5 0;
#X connect 0 0 6 0;
#X connect 2 0 7 0;
#X connect 3 0 5 2;
#X connect 4 0 3 0;
#X connect 5 0 1 0;
#X connect 6 0 5 1;
#X connect 7 0 4 0;
#X restore 73 433 pd verb;
#N canvas 0 22 1148 809 overdrive 0;
#X obj 25 66 inlet~;
#X obj 277 23 inlet;
#X obj 39 249 outlet~;
#X obj 278 106 line~;
#X msg 278 85 \$1 20;
#X obj 277 62 u/zmap 0 127 0 1;
#X obj 34 204 expr~ 0.1*tanh($v1*100)*$v2 + $v1*(1-$v2);
#X connect 0 0 6 0;
#X connect 1 0 5 0;
#X connect 3 0 6 1;
#X connect 4 0 3 0;
#X connect 5 0 4 0;
#X connect 6 0 2 0;
#X restore 73 373 pd overdrive;
#N canvas 0 22 1680 1001 noisecoder 1;
#X obj 195 56 fiddle~;
#X obj 148 54 noise~;
#X obj 195 80 mtof~;
#X obj 149 119 vcf~ 1000;
#X obj 274 86 line~;
#X msg 274 65 \$1 20;
#X obj 123 150 expr~ $v1*(1-pow($v3 \, 2)) + $v2*pow($v3 \, 2)*100
;
#X obj 69 26 inlet~;
#X obj 90 255 outlet~;
#X obj 267 17 inlet;
#X obj 273 42 u/zmap 0 127 0 1;
#X connect 0 0 2 0;
#X connect 1 0 3 0;
#X connect 2 0 3 1;
#X connect 3 0 6 1;
#X connect 4 0 6 2;
#X connect 5 0 4 0;
#X connect 6 0 8 0;
#X connect 7 0 0 0;
#X connect 7 0 6 0;
#X connect 9 0 10 0;
#X connect 10 0 5 0;
#X restore 73 339 pd noisecoder;
#X obj 466 40 loadbang;
#X msg 466 60 0;
#X connect 0 0 9 0;
#X connect 1 0 8 0;
#X connect 2 0 11 0;
#X connect 3 0 10 0;
#X connect 4 0 12 0;
#X connect 5 0 14 0;
#X connect 6 0 13 0;
#X connect 8 0 17 1;
#X connect 9 0 18 0;
#X connect 10 0 27 1;
#X connect 11 0 26 1;
#X connect 12 0 24 2;
#X connect 13 0 24 1;
#X connect 14 0 25 1;
#X connect 17 0 27 0;
#X connect 18 0 17 0;
#X connect 24 0 25 0;
#X connect 25 0 7 0;
#X connect 26 0 24 0;
#X connect 27 0 26 0;
#X connect 28 0 29 0;
#X connect 29 0 8 0;
#X connect 29 0 9 0;
#X connect 29 0 10 0;
#X connect 29 0 11 0;
#X connect 29 0 12 0;
#X connect 29 0 13 0;
#X connect 29 0 14 0;
#X coords 0 -1 1 1 340 190 1 70 60;
