#N canvas 635 27 840 1001 10;
#X obj 63 77 voicein \$1;
#X obj 63 871 voiceout~ \$1;
#X obj 63 105 list;
#X obj 119 106 s \$0-stop;
#X obj 130 844 r \$0-stop;
#X obj 217 355 t b f;
#X obj 117 378 expr sqrt($f1/127)*$f2;
#X obj 172 418 expr 127-pow($f1/127 \, 1.5)*127;
#X obj 291 515 expr pow($f1/127 \, 3)*127;
#X obj 613 489 t b f;
#X obj 527 550 expr sqrt($f1/127)*$f2;
#X obj 352 446 t b f;
#X obj 244 467 expr pow(1-$f1/127 \, 3)*$f2;
#X obj 63 134 zip-params;
#X obj 64 622 zip-instrument~;
#X obj 346 549 expr pow($f1/127 \, 3.0)*127;
#X obj 61 827 *~ 14;
#X connect 0 0 2 0;
#X connect 0 1 3 0;
#X connect 2 0 13 0;
#X connect 4 0 1 1;
#X connect 5 0 6 0;
#X connect 5 1 6 1;
#X connect 6 0 14 1;
#X connect 7 0 14 2;
#X connect 8 0 14 4;
#X connect 9 0 10 0;
#X connect 9 1 10 1;
#X connect 10 0 14 6;
#X connect 11 0 12 0;
#X connect 11 1 12 1;
#X connect 12 0 14 3;
#X connect 13 0 14 0;
#X connect 13 1 6 0;
#X connect 13 3 9 0;
#X connect 13 3 11 0;
#X connect 13 4 7 0;
#X connect 13 4 8 0;
#X connect 13 4 15 0;
#X connect 13 5 10 0;
#X connect 13 5 12 0;
#X connect 13 6 5 0;
#X connect 14 0 16 0;
#X connect 15 0 14 5;
#X connect 16 0 1 0;
