#N canvas 1225 684 280 299 10;
#X obj 98 64 inlet;
#X obj 165 91 select 0;
#X obj 167 46 loadbang;
#X obj 166 69 list append \$1;
#X obj 96 190 list prepend;
#X msg 165 115 print;
#X msg 165 160 \$1:;
#X obj 35 214 print \$1;
#X obj 165 138 list;
#X obj 96 214 s snd_csprint;
#X connect 0 0 4 0;
#X connect 0 0 7 0;
#X connect 1 0 5 0;
#X connect 1 1 8 0;
#X connect 2 0 3 0;
#X connect 3 0 1 0;
#X connect 4 0 9 0;
#X connect 5 0 8 0;
#X connect 6 0 4 1;
#X connect 8 0 6 0;
