#N canvas 958 108 454 427 10;
#X obj 195 343 outlet;
#X obj 17 19 inlet;
#X obj 138 219 route \$0;
#X obj 16 118 list prepend \$0;
#X obj 86 18 r \$1-start;
#X obj 16 90 list prepend;
#X obj 219 22 inlet;
#X obj 219 126 list prepend \$0;
#X obj 288 19 r \$1-start;
#X obj 219 99 list prepend;
#X obj 16 39 bng 15 250 50 0 empty empty empty 17 7 0 10 -262144 -1
-1;
#X obj 219 71 list prepend set \$2;
#X obj 16 65 list prepend get \$2;
#X obj 138 243 route bang;
#X obj 137 273 list \$3;
#X obj 136 293 list trim;
#X obj 16 145 s snd_csstore;
#X obj 219 153 s snd_csstore;
#X obj 138 189 r rcv_csstore;
#X connect 1 0 10 0;
#X connect 2 0 13 0;
#X connect 3 0 16 0;
#X connect 4 0 5 1;
#X connect 5 0 3 0;
#X connect 6 0 11 0;
#X connect 7 0 17 0;
#X connect 8 0 9 1;
#X connect 9 0 7 0;
#X connect 10 0 12 0;
#X connect 11 0 9 0;
#X connect 12 0 5 0;
#X connect 13 0 14 0;
#X connect 13 1 0 0;
#X connect 14 0 15 0;
#X connect 15 0 0 0;
#X connect 18 0 2 0;
