#N canvas 763 188 450 300 10;
#X obj 82 49 inlet;
#X obj 135 48 inlet;
#X obj 82 154 -;
#X obj 82 106 f \$1;
#X obj 82 71 t b f;
#X obj 82 181 outlet;
#X connect 0 0 4 0;
#X connect 1 0 3 1;
#X connect 2 0 5 0;
#X connect 3 0 2 0;
#X connect 4 0 3 0;
#X connect 4 1 2 1;
