#N canvas 426 120 450 300 10;
#X obj 135 51 inlet;
#X obj 229 52 inlet;
#X obj 179 247 outlet;
#X obj 79 141 f;
#X msg 215 80 0;
#X obj 265 143 + 1;
#X obj 215 143 f 0;
#X obj 178 218 /;
#X obj 143 156 t f f;
#X obj 131 79 t f b;
#X obj 211 103 t f f;
#X obj 143 135 + 0;
#X text 45 288 accumulates a running average. reset by banging the
right inlet;
#X connect 0 0 9 0;
#X connect 1 0 4 0;
#X connect 3 0 11 1;
#X connect 4 0 10 0;
#X connect 5 0 6 1;
#X connect 5 0 7 1;
#X connect 6 0 5 0;
#X connect 7 0 2 0;
#X connect 8 0 7 0;
#X connect 8 1 3 0;
#X connect 9 0 11 0;
#X connect 9 1 6 0;
#X connect 10 0 11 1;
#X connect 10 1 6 1;
#X connect 11 0 8 0;
