#N canvas 662 190 864 360 8;
#X obj 28 237 spigot;
#X obj 70 238 spigot;
#X obj 110 237 spigot;
#X obj 150 236 spigot;
#X obj 55 220 == 0;
#X obj 97 220 == 1;
#X obj 137 220 == 2;
#X obj 177 219 == 3;
#X obj 429 145 random \$1;
#X obj 272 73 inlet;
#X obj 190 236 spigot;
#X obj 230 236 spigot;
#X obj 270 236 spigot;
#X obj 310 236 spigot;
#X obj 350 236 spigot;
#X obj 390 236 spigot;
#X obj 430 236 spigot;
#X obj 470 236 spigot;
#X obj 510 236 spigot;
#X obj 550 236 spigot;
#X obj 217 219 == 4;
#X obj 257 219 == 5;
#X obj 297 219 == 6;
#X obj 337 219 == 7;
#X obj 377 219 == 8;
#X obj 417 219 == 9;
#X obj 457 219 == 10;
#X obj 497 219 == 11;
#X obj 537 219 == 12;
#X obj 577 219 == 13;
#X obj 112 145 unpack f f f f f f f f f f f f f f;
#X text 252 52 takes in a list;
#X text 351 294 outputs a random element from that list;
#X obj 272 93 t a b a;
#X obj 471 112 list length;
#X obj 550 139 > 14;
#X obj 550 156 select 1;
#X obj 550 190 print;
#X msg 550 173 [chooseone] only accepts lists up to 14 elements;
#X obj 310 294 outlet;
#X connect 0 0 39 0;
#X connect 1 0 39 0;
#X connect 2 0 39 0;
#X connect 3 0 39 0;
#X connect 4 0 0 1;
#X connect 5 0 1 1;
#X connect 6 0 2 1;
#X connect 7 0 3 1;
#X connect 8 0 4 0;
#X connect 8 0 5 0;
#X connect 8 0 6 0;
#X connect 8 0 7 0;
#X connect 8 0 20 0;
#X connect 8 0 21 0;
#X connect 8 0 22 0;
#X connect 8 0 23 0;
#X connect 8 0 24 0;
#X connect 8 0 25 0;
#X connect 8 0 26 0;
#X connect 8 0 27 0;
#X connect 8 0 28 0;
#X connect 8 0 29 0;
#X connect 9 0 33 0;
#X connect 10 0 39 0;
#X connect 11 0 39 0;
#X connect 12 0 39 0;
#X connect 13 0 39 0;
#X connect 14 0 39 0;
#X connect 15 0 39 0;
#X connect 16 0 39 0;
#X connect 17 0 39 0;
#X connect 18 0 39 0;
#X connect 19 0 39 0;
#X connect 20 0 10 1;
#X connect 21 0 11 1;
#X connect 22 0 12 1;
#X connect 23 0 13 1;
#X connect 24 0 14 1;
#X connect 25 0 15 1;
#X connect 26 0 16 1;
#X connect 27 0 17 1;
#X connect 28 0 18 1;
#X connect 29 0 19 1;
#X connect 30 0 0 0;
#X connect 30 1 1 0;
#X connect 30 2 2 0;
#X connect 30 3 3 0;
#X connect 30 4 10 0;
#X connect 30 5 11 0;
#X connect 30 6 12 0;
#X connect 30 7 13 0;
#X connect 30 8 14 0;
#X connect 30 9 15 0;
#X connect 30 10 16 0;
#X connect 30 11 17 0;
#X connect 30 12 18 0;
#X connect 30 13 19 0;
#X connect 33 0 30 0;
#X connect 33 1 8 0;
#X connect 33 2 34 0;
#X connect 34 0 8 1;
#X connect 34 0 35 0;
#X connect 35 0 36 0;
#X connect 36 0 38 0;
#X connect 38 0 37 0;
