#N canvas 490 201 323 202 10;
#X obj 42 35 inlet~;
#X obj 42 143 outlet~;
#X text 10 169 Delay with feedback;
#X text 10 183 Arguments are:;
#X text 10 196 - delay buffer size (in ms);
#X obj 173 143 delwrite~ \$0-del \$1;
#X obj 113 58 delread4~ \$0-del;
#X obj 113 35 inlet~;
#X obj 247 35 inlet~;
#X obj 173 107 *~;
#X text 37 14 input;
#X text 110 14 delay time (ms);
#X text 246 14 feedback;
#X connect 0 0 1 0;
#X connect 0 0 5 0;
#X connect 6 0 9 0;
#X connect 7 0 6 0;
#X connect 8 0 9 1;
#X connect 9 0 1 0;
#X connect 9 0 5 0;
