#N canvas 707 93 432 241 10;
#X obj 25 18 inlet;
#X obj 127 19 inlet;
#X obj 25 166 outlet;
#X obj 56 145 outlet;
#X obj 88 123 outlet;
#X obj 25 100 route \$1 \$2 \$3;
#X obj 25 77 list trim;
#X obj 25 56 list prepend \$1;
#X connect 0 0 7 0;
#X connect 1 0 7 1;
#X connect 5 0 2 0;
#X connect 5 1 3 0;
#X connect 5 2 4 0;
#X connect 6 0 5 0;
#X connect 7 0 6 0;
