#N canvas 172 114 517 438 10;
#X obj 42 90 noise~;
#X obj 42 122 lop~;
#X obj 42 146 lop~;
#X obj 42 171 lop~;
#X obj 161 110 log;
#X obj 161 198 dbtorms;
#X text 293 94 this is an empirical measurement of make-up gain needed.
It may depend on sampling rate (measured at 48000Hz)., f 32;
#X obj 161 175 + 100;
#X obj 42 247 *~ 1;
#X obj 161 153 max 0;
#X obj 161 131 expr -4.83 * $f1 + 43;
#X obj 139 70 inlet;
#X text 21 406 3-pole filtered noise source that adjusts make-up gain
to keep amplitude near 1 as filter cutoff is varied;
#X obj 42 273 outlet~;
#X text 196 152 keep it >= 0dB;
#X text 198 174 PD strangely uses 100dB as unity gain;
#X connect 0 0 1 0;
#X connect 1 0 2 0;
#X connect 2 0 3 0;
#X connect 3 0 8 0;
#X connect 4 0 10 0;
#X connect 5 0 8 1;
#X connect 7 0 5 0;
#X connect 8 0 13 0;
#X connect 9 0 7 0;
#X connect 10 0 9 0;
#X connect 11 0 4 0;
#X connect 11 0 1 1;
#X connect 11 0 2 1;
#X connect 11 0 3 1;
