#N canvas 114 531 450 300 10;
#X obj 26 14 inlet;
#X obj 68 25 inlet;
#X obj 68 42 t b f;
#X obj 255 256 outlet;
#X obj 166 94 inlet;
#X obj 166 111 t b f;
#X obj 275 159 inlet;
#X obj 275 176 t b f;
#X obj 48 81 f -3.40282e+038;
#X obj 48 99 max -3.40282e+038;
#X obj 146 150 f -3.40282e+038;
#X obj 146 168 max -3.40282e+038;
#X obj 255 215 f -3.40282e+038;
#X obj 255 233 max -3.40282e+038;
#X text 159 53 initialize to the biggest negative float value, f 30
;
#X connect 0 0 8 0;
#X connect 1 0 2 0;
#X connect 2 0 8 0;
#X connect 2 1 9 1;
#X connect 4 0 5 0;
#X connect 5 0 10 0;
#X connect 5 1 11 1;
#X connect 6 0 7 0;
#X connect 7 0 12 0;
#X connect 7 1 13 1;
#X connect 8 0 9 0;
#X connect 9 0 10 0;
#X connect 10 0 11 0;
#X connect 11 0 12 0;
#X connect 12 0 13 0;
#X connect 13 0 3 0;
