#N canvas 685 124 444 219 10;
#X obj 40 38 inlet;
#X obj 40 63 t f b;
#X obj 98 38 inlet;
#X obj 98 63 t f b;
#X obj 161 38 inlet;
#X obj 161 63 t f b;
#X obj 224 38 inlet;
#X obj 224 63 t f b;
#X msg 150 122 1;
#X msg 184 121 1;
#X msg 217 121 1;
#X msg 251 120 1;
#X obj 40 154 sum4;
#X obj 182 154 sum4;
#X obj 138 188 /;
#X obj 138 211 outlet;
#X text 237 146 only average the inputs we've actually heard from instead
of assuming they're zero, f 27;
#X connect 0 0 1 0;
#X connect 1 0 12 0;
#X connect 1 1 8 0;
#X connect 2 0 3 0;
#X connect 3 0 12 1;
#X connect 3 1 9 0;
#X connect 4 0 5 0;
#X connect 5 0 12 2;
#X connect 5 1 10 0;
#X connect 6 0 7 0;
#X connect 7 0 12 3;
#X connect 7 1 11 0;
#X connect 8 0 13 0;
#X connect 9 0 13 1;
#X connect 10 0 13 2;
#X connect 11 0 13 3;
#X connect 12 0 14 0;
#X connect 13 0 14 1;
#X connect 14 0 15 0;
