#N canvas 719 335 523 392 10;
#X obj 24 26 inlet;
#X obj 79 47 inlet;
#X obj 79 64 t b f;
#X obj 171 122 inlet;
#X obj 171 139 t b f;
#X obj 268 195 inlet;
#X obj 268 212 t b f;
#X obj 253 293 outlet;
#X obj 64 104 f 3.40282e+038;
#X obj 64 125 min 3.40282e+038;
#X obj 156 179 f 3.40282e+038;
#X obj 156 200 min 3.40282e+038;
#X obj 253 252 f 3.40282e+038;
#X obj 253 273 min 3.40282e+038;
#X text 223 139 initialize to the maximum float value, f 22;
#X connect 0 0 8 0;
#X connect 1 0 2 0;
#X connect 2 0 8 0;
#X connect 2 1 9 1;
#X connect 3 0 4 0;
#X connect 4 0 10 0;
#X connect 4 1 11 1;
#X connect 5 0 6 0;
#X connect 6 0 12 0;
#X connect 6 1 13 1;
#X connect 8 0 9 0;
#X connect 9 0 10 0;
#X connect 10 0 11 0;
#X connect 11 0 12 0;
#X connect 12 0 13 0;
#X connect 13 0 7 0;
