#N canvas 577 120 705 546 10;
#X obj 22 310 inlet;
#X obj 22 361 outlet;
#X obj 22 336 intervalmap;
#X obj 85 25 inlet;
#X text 21 399 collection of different chords that map chord tones
onto MIDI Notes., f 37;
#X text 388 150 maj7;
#X text 219 252 min7;
#X text 354 174 dom7;
#X text 313 201 aug7;
#X text 134 301 dim7;
#X text 179 277 halfdim7;
#X text 433 125 augmaj7;
#X text 21 441 "pitch constellation" diagrams at https://en.wikipedia.org/wiki/Chord_(music)
are useful here, f 43;
#X obj 85 53 select dim7 halfdim7 min7 minmaj7 aug7 dom7 maj7 augmaj7
;
#X text 265 226 minmaj7;
#X msg 85 302 3 3 3 3;
#X msg 126 277 3 3 4 2;
#X msg 168 252 3 4 3 2;
#X msg 209 227 3 4 4 1;
#X msg 251 201 4 4 2 2;
#X msg 293 175 4 3 3 2;
#X msg 334 151 4 3 4 1;
#X msg 376 125 4 4 3 1;
#X obj 144 28 symbol \$1;
#X obj 144 7 loadbang;
#X obj 418 100 print;
#X msg 418 77 WARNING: unrecognized notechord "\$1";
#X connect 0 0 2 0;
#X connect 2 0 1 0;
#X connect 3 0 13 0;
#X connect 13 0 15 0;
#X connect 13 1 16 0;
#X connect 13 2 17 0;
#X connect 13 3 18 0;
#X connect 13 4 19 0;
#X connect 13 5 20 0;
#X connect 13 6 21 0;
#X connect 13 7 22 0;
#X connect 13 8 26 0;
#X connect 15 0 2 1;
#X connect 16 0 2 1;
#X connect 17 0 2 1;
#X connect 18 0 2 1;
#X connect 19 0 2 1;
#X connect 20 0 2 1;
#X connect 21 0 2 1;
#X connect 22 0 2 1;
#X connect 23 0 13 0;
#X connect 24 0 23 0;
#X connect 26 0 25 0;
