#N canvas 599 309 450 300 10;
#X obj 47 25 inlet;
#X obj 177 31 inlet;
#X obj 92 201 outlet;
#X obj 95 130 spigot 0;
#X obj 94 166 t a b;
#X msg 161 62 1;
#X msg 195 106 0;
#X connect 0 0 3 0;
#X connect 1 0 5 0;
#X connect 3 0 4 0;
#X connect 4 0 2 0;
#X connect 4 1 6 0;
#X connect 5 0 3 1;
#X connect 6 0 3 1;
