#N canvas 0 22 450 300 10;
#X obj 74 45 inlet;
#X obj 172 47 inlet;
#X obj 172 99 t b s;
#X obj 73 239 outlet;
#X obj 149 138 loadbang;
#X obj 137 187 symbol \$2;
#X obj 93 168 symbol \$1;
#X obj 73 200 pack s s;
#X connect 0 0 7 0;
#X connect 1 0 2 0;
#X connect 2 0 7 0;
#X connect 2 1 7 1;
#X connect 4 0 5 0;
#X connect 4 0 6 0;
#X connect 5 0 7 1;
#X connect 6 0 7 0;
#X connect 7 0 3 0;
