#N canvas 0 22 450 300 10;
#X obj 74 45 inlet;
#X obj 172 47 inlet;
#X obj 281 49 inlet;
#X obj 281 96 t b s;
#X obj 172 99 t b s;
#X obj 73 239 outlet;
#X obj 73 200 pack s s s;
#X obj 149 138 loadbang;
#X obj 200 189 symbol \$3;
#X obj 137 187 symbol \$2;
#X obj 93 168 symbol \$1;
#X connect 0 0 6 0;
#X connect 1 0 4 0;
#X connect 2 0 3 0;
#X connect 3 0 6 0;
#X connect 3 1 6 2;
#X connect 4 0 6 0;
#X connect 4 1 6 1;
#X connect 6 0 5 0;
#X connect 7 0 8 0;
#X connect 7 0 9 0;
#X connect 7 0 10 0;
#X connect 8 0 6 2;
#X connect 9 0 6 1;
#X connect 10 0 6 0;
