#N canvas 0 22 835 574 10;
#X obj 127 332 outlet;
#X obj 28 99 inlet;
#X obj 93 102 inlet;
#X obj 215 90 inlet;
#X obj 318 77 inlet;
#X obj 267 83 inlet;
#X obj 143 96 inlet;
#X obj 52 236 pack 0 0 0 0 0 0;
#X obj 93 124 t b f;
#X obj 143 118 t b f;
#X obj 215 112 t b f;
#X obj 267 105 t b f;
#X obj 318 99 t b f;
#X connect 1 0 7 0;
#X connect 2 0 8 0;
#X connect 3 0 10 0;
#X connect 4 0 12 0;
#X connect 5 0 11 0;
#X connect 6 0 9 0;
#X connect 7 0 0 0;
#X connect 8 0 7 0;
#X connect 8 1 7 1;
#X connect 9 0 7 0;
#X connect 9 1 7 2;
#X connect 10 0 7 0;
#X connect 10 1 7 3;
#X connect 11 0 7 0;
#X connect 11 1 7 4;
#X connect 12 0 7 0;
#X connect 12 1 7 5;
