#N canvas 454 147 887 456 8;
#N canvas 0 50 450 250 (subpatch) 0;
#X array \$0-major-notes 7 float 3;
#A 0 0 2 4 5 7 9 11;
#X coords 0 12 7 0 200 140 1;
#X restore 649 76 graph;
#N canvas 0 50 450 250 (subpatch) 0;
#X array \$0-minor-notes 7 float 3;
#A 0 0 2 3 5 7 8 11;
#X coords 0 12 7 0 200 140 1;
#X restore 655 269 graph;
#X obj 125 66 inlet;
#X obj 194 90 inlet;
#X obj 263 78 inlet;
#X obj 263 118 select major minor;
#X text 260 62 major or minor;
#X text 182 68 root note;
#X text 108 43 pitch index;
#X msg 457 67 \; \$1-major-notes resize 7 \; \$1-major-notes 0 0 2
4 5 7 9 11 \; \$1-major-notes bounds 0 12 7 0;
#X msg 461 275 \; \$1-minor-notes resize 7 \; \$1-minor-notes 0 0 2
3 5 7 8 11 \; \$1-minor-notes bounds 0 12 7 0;
#X obj 423 33 f \$0;
#X obj 423 14 bng 15 250 50 0 empty empty empty 17 7 0 10 -262144 -1
-1;
#X obj 263 237 tabread \$0-major-notes;
#X msg 263 177 set \$1-major-notes;
#X msg 306 155 set \$1-minor-notes;
#X obj 306 137 f \$0;
#X obj 263 158 f \$0;
#X obj 177 193 + 60;
#X obj 125 127 t f f;
#X obj 147 168 * 12;
#X obj 263 269 +;
#X obj 263 302 outlet;
#X obj 125 94 f 0;
#X text 32 94 also accept bang;
#X obj 125 192 mod 7;
#X obj 147 151 div 7;
#X obj 263 98 symbol;
#X text 446 11 use this to fill arrays (should be saved with patch)
;
#X connect 2 0 23 0;
#X connect 3 0 18 1;
#X connect 4 0 27 0;
#X connect 5 0 17 0;
#X connect 5 1 16 0;
#X connect 11 0 10 0;
#X connect 11 0 9 0;
#X connect 12 0 11 0;
#X connect 13 0 21 0;
#X connect 14 0 13 0;
#X connect 15 0 13 0;
#X connect 16 0 15 0;
#X connect 17 0 14 0;
#X connect 18 0 21 1;
#X connect 19 0 25 0;
#X connect 19 1 26 0;
#X connect 20 0 18 0;
#X connect 21 0 22 0;
#X connect 23 0 19 0;
#X connect 25 0 13 0;
#X connect 26 0 20 0;
#X connect 27 0 5 0;
