#N canvas 806 217 450 300 10;
#X obj 49 72 list;
#X obj 49 41 bng 15 250 50 0 empty empty empty 17 7 0 10 -262144 -1
-1;
#X obj 49 141 outlet;
#X obj 169 10 inlet;
#X obj 49 5 inlet;
#X obj 47 95 list trim;
#X connect 0 0 5 0;
#X connect 1 0 0 0;
#X connect 3 0 0 1;
#X connect 4 0 1 0;
#X connect 5 0 2 0;
