#N canvas 597 69 659 428 10;
#X obj 33 325 inlet;
#X obj 33 376 outlet;
#X obj 33 351 intervalmap;
#X obj 96 13 inlet;
#X msg 96 316 1;
#X msg 136 298 2 2 1 2 2 2 1;
#X msg 300 211 2 1 2 2 2 2 1;
#X text 121 315 chromatic;
#X text 225 298 major;
#X text 263 273 [natural]minor;
#X text 344 233 harmonicminor;
#X text 387 210 melodicminor;
#X msg 341 187 2;
#X text 369 187 wholetone;
#X msg 177 274 2 1 2 2 1 2 2;
#X msg 259 233 2 1 2 2 1 3 1;
#X obj 96 68 select chromatic major minor naturalminor harmonicminor
melodicminor wholetone blues;
#X msg 382 166 3 2 1 1 3 1;
#X text 456 164 blues;
#X text 242 361 collection of different scales that map scale degrees
onto MIDI notes, f 37;
#X obj 96 42 symbol \$1;
#X obj 171 18 loadbang;
#X msg 423 107 WARNING: unrecognized scale "\$1";
#X obj 423 129 print;
#X connect 0 0 2 0;
#X connect 2 0 1 0;
#X connect 3 0 20 0;
#X connect 4 0 2 1;
#X connect 5 0 2 1;
#X connect 6 0 2 1;
#X connect 12 0 2 1;
#X connect 14 0 2 1;
#X connect 15 0 2 1;
#X connect 16 0 4 0;
#X connect 16 1 5 0;
#X connect 16 2 14 0;
#X connect 16 3 14 0;
#X connect 16 4 15 0;
#X connect 16 5 6 0;
#X connect 16 6 12 0;
#X connect 16 7 17 0;
#X connect 16 8 22 0;
#X connect 17 0 2 1;
#X connect 20 0 16 0;
#X connect 21 0 20 0;
#X connect 22 0 23 0;
