#N canvas 539 236 459 302 10;
#X obj 64 34 inlet;
#X obj 64 257 outlet;
#X obj 126 35 inlet;
#X obj 208 35 inlet;
#X obj 290 34 inlet;
#X obj 290 57 t b f f;
#X obj 208 58 t b f f;
#X obj 126 58 t b f f;
#X obj 391 152 mean4;
#X obj 64 60 t f f;
#X obj 64 180 expr sqrt((pow($f1-$f5 \, 2)+pow($f2-$f5 \, 2)+pow($f3-$f5
\, 2)+pow($f4-$f5 \, 2))/4);
#X connect 0 0 9 0;
#X connect 2 0 7 0;
#X connect 3 0 6 0;
#X connect 4 0 5 0;
#X connect 5 0 10 0;
#X connect 5 1 10 3;
#X connect 5 2 8 3;
#X connect 6 0 10 0;
#X connect 6 1 10 2;
#X connect 6 2 8 2;
#X connect 7 0 10 0;
#X connect 7 1 10 1;
#X connect 7 2 8 1;
#X connect 8 0 10 4;
#X connect 9 0 10 0;
#X connect 9 1 8 0;
#X connect 10 0 1 0;
