#N canvas 166 250 331 168 10;
#X obj 11 12 inlet;
#X obj 88 21 inlet;
#X obj 257 82 inlet;
#X obj 257 149 outlet;
#X obj 88 66 +;
#X obj 88 38 t b f;
#X obj 257 126 +;
#X obj 257 101 t b f;
#X obj 170 54 inlet;
#X obj 170 96 +;
#X obj 170 73 t b f;
#X connect 0 0 4 0;
#X connect 1 0 5 0;
#X connect 2 0 7 0;
#X connect 4 0 9 0;
#X connect 5 0 4 0;
#X connect 5 1 4 1;
#X connect 6 0 3 0;
#X connect 7 0 6 0;
#X connect 7 1 6 1;
#X connect 8 0 10 0;
#X connect 9 0 6 0;
#X connect 10 0 9 0;
#X connect 10 1 9 1;
