#N canvas 458 23 209 236 10;
#X obj 39 24 inlet~;
#X obj 93 24 inlet~;
#X obj 143 24 inlet;
#X obj 59 212 outlet~;
#X obj 39 154 *~;
#X obj 108 135 -;
#X msg 108 114 1 \$1;
#X obj 93 156 *~;
#X connect 0 0 4 0;
#X connect 1 0 7 0;
#X connect 2 0 6 0;
#X connect 2 0 4 1;
#X connect 4 0 3 0;
#X connect 5 0 7 1;
#X connect 6 0 5 0;
#X connect 7 0 3 0;
