#N canvas 719 335 701 386 10;
#X obj 195 26 inlet;
#X obj 246 25 inlet;
#X obj 246 290 outlet;
#X obj 195 206 random \$1;
#X text 24 339 just like [random] \, except that it never repeats;
#X obj 195 239 select -1;
#X obj 158 222 bang;
#X obj 315 27 loadbang;
#X obj 315 49 f \$1;
#X obj 314 150 t b b;
#X msg 341 172 WARNING: randomx with arg < 2 would cause infinite loops.
setting to 2;
#X obj 341 208 print;
#X obj 314 172 f 2;
#X obj 246 127 spigot;
#X obj 246 47 t f f;
#X obj 246 264 t f f;
#X text 88 196 keep generating until we get a new value, f 11;
#X obj 314 127 select 0;
#X obj 297 94 >= 2;
#X connect 0 0 3 0;
#X connect 1 0 14 0;
#X connect 3 0 5 0;
#X connect 5 0 6 0;
#X connect 5 1 15 0;
#X connect 6 0 3 0;
#X connect 7 0 8 0;
#X connect 8 0 18 0;
#X connect 9 0 12 0;
#X connect 9 1 10 0;
#X connect 10 0 11 0;
#X connect 12 0 3 1;
#X connect 13 0 3 1;
#X connect 14 0 13 0;
#X connect 14 1 18 0;
#X connect 15 0 2 0;
#X connect 15 1 5 1;
#X connect 17 0 9 0;
#X connect 18 0 13 1;
#X connect 18 0 17 0;
