#N canvas 169 170 633 454 10;
#X obj 110 41 inlet;
#X obj 109 250 outlet;
#X obj 211 42 loadbang;
#X obj 110 72 clip \$1 \$2;
#X obj 110 104 - \$1;
#X obj 110 142 /;
#X obj 209 68 f \$2;
#X obj 208 94 - \$1;
#X obj 110 177 *;
#X obj 287 42 loadbang;
#X obj 285 68 f \$4;
#X obj 284 94 - \$3;
#X obj 110 199 + \$3;
#X connect 0 0 3 0;
#X connect 2 0 6 0;
#X connect 3 0 4 0;
#X connect 4 0 5 0;
#X connect 5 0 8 0;
#X connect 6 0 7 0;
#X connect 7 0 5 1;
#X connect 8 0 12 0;
#X connect 9 0 10 0;
#X connect 10 0 11 0;
#X connect 11 0 8 1;
#X connect 12 0 1 0;
